HIERARCHY
ROOT Hips
{
  OFFSET 0 0 0
  CHANNELS 6 Xposition Yposition Zposition Zrotation Yrotation Xrotation
  JOINT LeftThigh
  {
    OFFSET 8.409438 0 -5.917753
    CHANNELS 3 Zrotation Yrotation Xrotation
    JOINT LeftLeg
    {
      OFFSET 0 0 -42.358652
      CHANNELS 3 Zrotation Yrotation Xrotation
      JOINT LeftFoot
      {
        OFFSET 0 0 -39.357303
        CHANNELS 3 Zrotation Yrotation Xrotation
      }
    }
  }
  JOINT RightThigh
  {
    OFFSET -8.409438 0 -5.917753
    CHANNELS 3 Zrotation Yrotation Xrotation
    JOINT RightLeg
    {
      OFFSET 0 0 -42.358652
      CHANNELS 3 Zrotation Yrotation Xrotation
      JOINT RightFoot
      {
        OFFSET 0 0 -39.357303
        CHANNELS 3 Zrotation Yrotation Xrotation
      }
    }
  }
  JOINT SpineLow
  {
    OFFSET 0 0 4.719101
    CHANNELS 3 Zrotation Yrotation Xrotation
    JOINT SpineMid
    {
      OFFSET 0 0 12.899191
      CHANNELS 3 Zrotation Yrotation Xrotation
      JOINT Chest
      {
        OFFSET 0 0 12.899191
        CHANNELS 3 Zrotation Yrotation Xrotation
        JOINT LeftShoulder
        {
          OFFSET 7.550562 1.41573 9.438202
          CHANNELS 3 Zrotation Yrotation Xrotation
          JOINT LeftArm
          {
            OFFSET 9.155056 0 4.247191
            CHANNELS 3 Zrotation Yrotation Xrotation
            JOINT LeftForearm
            {
              OFFSET 0 0 25.771955
              CHANNELS 3 Zrotation Yrotation Xrotation
              JOINT LeftHand
              {
                OFFSET 0 0 25.197169
                CHANNELS 3 Zrotation Yrotation Xrotation
              }
            }
          }
        }
        JOINT RightShoulder
        {
          OFFSET -7.550562 1.41573 9.438202
          CHANNELS 3 Zrotation Yrotation Xrotation
          JOINT RightArm
          {
            OFFSET -9.155056 0 4.247191
            CHANNELS 3 Zrotation Yrotation Xrotation
            JOINT RightForearm
            {
              OFFSET 0 0 -25.771955
              CHANNELS 3 Zrotation Yrotation Xrotation
              JOINT RightHand
              {
                OFFSET 0 0 -25.197169
                CHANNELS 3 Zrotation Yrotation Xrotation
              }
            }
          }
        }
        JOINT Neck
        {
          OFFSET 0 0 15.101124
          CHANNELS 3 Zrotation Yrotation Xrotation
          JOINT Head
          {
            OFFSET 0 0 11.325843
            CHANNELS 3 Zrotation Yrotation Xrotation
            End Site
            {
              OFFSET 0 0 14.157303
            }
          }
        }
      }
    }
  }
}
MOTION
Frames: 13
Frame Time: 0.0
0.0  89.887642  0.0  -7.312547  -10.462364  -95.626475  5.481979  -26.581137  -7.578192  2.217275  9.883357  41.282363  7.458836  2.664878  4.27722  -8.857619  3.271582  -13.317326  4.559945  2.237716  33.265995  5.310046  1.274619  0.716057  0.871997  -2.523919  0.487289  2.340277  -6.915165  1.24467  2.340277  -6.915165  1.24467  -15.479697  30.13694  4.473297  117.228598  31.667215  171.281399  -5.799692  -18.55737  42.671268  87.684602  -10.684372  2.158535  -14.026455  13.898246  17.968147  41.773717  15.641484  13.768557  -1.027038  4.840712  -49.934065  89.704468  5.158  -13.480538  1.100687  5.909571  6.5994  0.760868  4.444678  4.934495  
0.0  89.887642  0.0  -7.173432  -10.576271  -95.585177  4.770549  -26.302927  -7.800019  2.917684  9.891971  42.401636  7.497244  2.722351  4.18886  -10.057841  3.509253  -14.423826  5.476537  1.577217  34.554857  5.458563  1.272851  0.807735  0.833798  -2.484462  0.550139  2.229563  -6.808736  1.422278  2.229563  -6.808736  1.422278  -15.029374  29.657306  4.335694  118.720066  31.690275  172.278171  -6.110388  -18.669702  43.876087  87.756877  -10.523165  2.887171  -13.898312  14.074553  18.191479  41.143029  15.023763  13.486704  -1.198333  5.290532  -50.601786  88.806479  5.233368  -13.621084  1.344541  5.902226  6.202463  0.947535  4.440864  4.634726  
0.0  89.887642  0.0  -7.014658  -10.732822  -95.702326  4.251359  -26.086472  -7.831661  4.192316  9.83359  43.936224  7.121835  2.520636  3.807335  -11.01966  3.773998  -15.290247  7.037957  0.586859  36.008589  4.757479  1.180761  0.757111  0.807459  -2.460627  0.64777  2.14771  -6.746169  1.693422  2.14771  -6.746169  1.693422  -14.798119  29.271626  4.189024  120.099024  31.886387  173.066327  -6.214816  -18.883682  45.148236  87.821032  -10.345759  3.738519  -13.872809  14.337415  18.395237  40.937661  14.479821  13.127186  -1.616909  5.602908  -51.276539  87.951055  5.218396  -13.36808  1.512011  5.968068  5.759879  1.076663  4.490786  4.301214  
0.0  89.887642  0.0  -6.777135  -10.908388  -95.82495  4.318218  -25.723315  -8.002378  4.185554  9.88976  44.692312  7.152941  2.517454  3.784843  -12.09164  4.134489  -16.208279  7.568406  0.001339  37.241096  4.619362  1.238701  0.853539  0.773273  -2.414484  0.73021  2.046655  -6.621716  1.924243  2.046655  -6.621715  1.924243  -14.515917  28.959521  4.217578  121.179705  32.222771  173.489933  -6.220856  -19.229104  46.478368  87.858659  -10.047624  4.597421  -13.748888  14.508497  18.743612  41.169848  14.108429  12.877455  -2.279855  6.025457  -52.01759  87.161615  5.149402  -12.851562  1.777142  6.017594  5.424882  1.278155  4.529417  4.047399  
0.0  89.887642  0.0  -6.401477  -11.093473  -95.726281  4.891861  -25.028464  -8.51077  3.775826  9.853933  45.285482  7.189058  2.51105  3.794616  -13.414238  4.572773  -17.464812  8.207249  -0.520857  38.508871  4.718479  1.295473  0.920745  0.735096  -2.351405  0.768716  1.939818  -6.449348  2.035285  1.939818  -6.449348  2.035285  -14.274364  28.73737  4.232454  122.036695  32.57761  173.636863  -6.247276  -19.639895  47.81376  87.962397  -9.71323  5.540583  -13.098007  14.601762  19.289637  40.59713  13.849458  12.411141  -2.409334  6.774134  -52.669068  86.469023  5.080205  -12.121622  2.010479  6.081861  5.12897  1.455348  4.578686  3.823083  
0.0  89.887642  0.0  -5.908199  -11.304256  -95.337767  5.737184  -24.275704  -9.65993  3.470782  9.914194  46.169297  7.179155  2.482398  3.832294  -14.434453  5.061732  -18.899095  8.429338  -0.807038  39.722375  4.817138  1.322884  0.864843  0.700176  -2.254952  0.762757  1.847322  -6.184538  2.024725  1.847323  -6.184538  2.024725  -13.991626  28.520063  4.256435  122.645474  33.036751  173.529435  -6.284966  -20.044054  49.132197  88.085125  -9.237223  6.515611  -12.80172  14.519127  19.558733  40.842769  13.778339  12.37631  -2.83662  7.549716  -53.382182  85.980066  4.989214  -11.414197  2.343023  6.119175  4.896762  1.706527  4.608559  3.645598  
0.0  89.887642  0.0  -5.374463  -11.468737  -94.714083  6.470589  -23.592183  -11.241932  3.314889  10.092493  47.223788  7.100903  2.496108  3.893337  -15.520834  5.380848  -20.411807  8.663739  -0.867488  40.808635  4.894891  1.32457  0.770529  0.646756  -2.154604  0.725894  1.707039  -5.907769  1.93099  1.707039  -5.907769  1.93099  -13.756281  28.360662  4.143474  123.299317  33.552038  173.362921  -6.20717  -20.399839  50.343803  88.376951  -8.724322  7.473824  -12.463541  14.44161  19.628  41.04322  13.765732  12.341512  -3.162973  8.394684  -54.085844  85.505753  4.816546  -10.822284  2.746497  6.183427  4.678839  2.010505  4.659001  3.477915  
0.0  89.887642  0.0  -4.86475  -11.541697  -94.001594  7.292951  -22.90248  -12.912436  2.723824  10.446167  47.986592  7.06982  2.555928  4.007969  -16.670891  5.551595  -21.881494  9.078733  -0.858166  41.734938  5.222232  1.425602  0.653175  0.59283  -2.051532  0.690658  1.565068  -5.623717  1.841421  1.565068  -5.623717  1.841421  -13.78233  28.198782  3.767552  124.047768  34.030868  173.09534  -6.066016  -20.713356  51.524596  88.713833  -8.168117  8.445614  -12.296685  14.320449  19.448688  41.283342  13.873668  12.287819  -3.307206  8.962833  -54.722364  84.972997  4.595101  -9.962187  3.109926  6.240346  4.394289  2.285246  4.70302  3.260685  
0.0  89.887642  0.0  -4.448749  -11.259789  -93.417114  7.565454  -21.881274  -14.247527  1.864223  10.467431  48.274979  7.316332  2.693264  4.270298  -17.845921  5.668634  -22.976597  9.528852  -0.866419  42.415604  5.504234  1.492678  0.53489  0.49601  -1.967419  0.683284  1.302647  -5.391036  1.830916  1.302647  -5.391036  1.830916  -14.089269  28.089039  3.141978  124.749729  34.407475  172.658094  -6.025339  -21.029262  52.697274  89.054671  -7.542246  9.453112  -12.27379  14.219945  19.095485  41.60892  14.116575  12.276752  -3.60726  9.042269  -55.488754  84.755041  4.297024  -8.906865  3.416195  6.33291  4.03195  2.51773  4.772609  2.98546  
0.0  89.887642  0.0  -4.135285  -10.524701  -93.101698  7.068801  -20.792038  -15.365367  1.251459  10.115588  48.518073  7.518159  2.76104  4.532869  -18.822665  5.833057  -23.305402  9.865306  -0.818354  42.6438  5.59387  1.626316  0.425282  0.355543  -1.905186  0.718685  0.916785  -5.217565  1.940064  0.916785  -5.217566  1.940064  -14.822162  28.003112  2.272745  125.301203  34.670774  171.953778  -6.08598  -21.457703  53.827261  89.297403  -7.00482  10.57161  -12.416576  14.06009  18.629662  41.915149  14.452116  12.360513  -4.014982  8.657381  -56.441729  84.78685  4.163812  -7.566091  3.617095  6.470971  3.612194  2.67165  4.874978  2.667926  
0.0  89.887642  0.0  -3.939158  -9.11597  -92.827741  6.469883  -20.068472  -16.540453  0.582739  9.922791  48.583133  7.58519  2.723132  4.774001  -19.569329  5.995232  -23.076767  9.874634  -0.565195  42.383781  5.722084  1.692469  0.35312  0.145706  -1.874198  0.744661  0.341058  -5.126848  2.027887  0.341058  -5.126848  2.027887  -15.904248  27.978698  1.311294  125.651085  34.846707  171.076734  -6.260863  -21.976317  54.878141  89.409909  -6.36493  11.721919  -12.64341  13.904901  18.195402  42.045145  14.876969  12.467661  -4.394413  7.837181  -57.664258  84.695323  4.319687  -5.831153  3.706915  6.679293  3.232438  2.74165  5.029429  2.381002  
0.0  89.887642  0.0  -3.787283  -6.718301  -92.566676  5.635994  -19.549495  -17.412425  -0.351295  9.851781  48.016254  7.47986  2.607878  4.975647  -19.85352  6.41591  -22.453802  9.096579  -0.224153  41.753409  5.789794  1.716364  0.391531  -0.179237  -1.87447  0.735804  -0.548007  -5.117631  2.02889  -0.548007  -5.117631  2.02889  -17.024594  28.079505  0.633051  125.720653  35.043899  170.335835  -6.581208  -22.541843  55.711487  89.619072  -5.620691  13.000337  -12.980208  13.894477  17.83302  42.074089  15.380245  12.605869  -4.811579  6.909165  -59.304763  84.087777  4.672208  -3.996097  3.657082  6.965896  2.988499  2.705287  5.242643  2.196832  
0.0  89.887642  0.0  -3.674861  -3.231584  -92.407354  3.940911  -18.909088  -17.975368  -1.292581  9.497001  47.07542  7.253011  2.408287  5.132539  -19.891931  6.969966  -21.130607  7.642926  0.283734  40.658543  5.586567  1.799887  0.378626  -0.639691  -1.92454  0.695812  -1.807329  -5.241161  1.956558  -1.807328  -5.241161  1.956558  -18.14106  28.461358  0.191315  125.657291  35.227089  169.829013  -6.861755  -23.235543  56.283763  89.925111  -4.713501  14.457867  -13.347986  14.183812  17.511975  42.005043  15.920854  12.745364  -5.092458  5.885126  -61.290571  83.163793  4.994625  -1.904579  3.463303  7.379803  2.932416  2.558359  5.551798  2.154315  
